<svg width="64" height="64" viewBox="0 0 64 64" fill="none" xmlns="http://www.w3.org/2000/svg">
<rect width="64" height="64" fill="#10031E"/>
<path d="M13.7699 42V21.6364H21.804C23.3485 21.6364 24.6643 21.9313 25.7514 22.5213C26.8385 23.1046 27.6671 23.9167 28.2372 24.9574C28.8139 25.9915 29.1023 27.1847 29.1023 28.5369C29.1023 29.8892 28.8106 31.0824 28.2273 32.1165C27.6439 33.1506 26.7988 33.956 25.6918 34.5327C24.5914 35.1094 23.259 35.3977 21.6946 35.3977H16.5739V31.9474H20.9986C21.8272 31.9474 22.5099 31.8049 23.0469 31.5199C23.5904 31.2282 23.9948 30.8272 24.2599 30.3168C24.5317 29.7997 24.6676 29.2064 24.6676 28.5369C24.6676 27.8608 24.5317 27.2708 24.2599 26.767C23.9948 26.2566 23.5904 25.8622 23.0469 25.5838C22.5033 25.2988 21.8139 25.1562 20.9787 25.1562H18.0753V42H13.7699ZM31.8988 42V21.6364H36.2042V30.0384H44.9442V21.6364H49.2397V42H44.9442V33.5881H36.2042V42H31.8988Z" fill="#6366F1"/>
</svg>
